<?xml version="1.0" standalone="no"?>
<!DOCTYPE svg PUBLIC "-//W3C//DTD SVG 20010904//EN"
 "http://www.w3.org/TR/2001/REC-SVG-20010904/DTD/svg10.dtd">
<svg version="1.0" xmlns="http://www.w3.org/2000/svg"
 width="166.000000pt" height="166.000000pt" viewBox="0 0 166.000000 166.000000"
 preserveAspectRatio="xMidYMid meet">
<metadata>
Created by potrace 1.14, written by Peter Selinger 2001-2017
</metadata>
<g transform="translate(0.000000,166.000000) scale(0.100000,-0.100000)"
fill="#000000" stroke="none">
<path d="M471 1603 c-65 -205 -56 -995 12 -1081 14 -18 35 2 43 42 4 22 25 47
71 86 36 30 75 64 86 75 12 12 53 48 92 80 38 33 76 67 85 75 33 30 140 122
164 141 16 13 40 19 73 19 44 0 49 -3 63 -33 9 -18 29 -38 47 -46 l31 -14 1
-238 0 -239 -109 0 -110 0 0 -39 0 -39 -97 2 c-92 3 -98 5 -101 25 -4 27 -19
27 -18 0 1 -21 -4 -22 -109 -25 -123 -3 -220 -11 -250 -21 l-20 -6 20 -8 c11
-4 32 -8 48 -8 15 -1 27 -4 27 -8 0 -5 -32 -8 -70 -9 -102 -1 -112 -13 -115
-141 -2 -113 4 -135 38 -158 22 -14 77 -16 461 -15 471 0 476 1 490 53 3 12 6
242 6 510 l0 489 -29 29 c-29 29 -30 29 -155 29 l-125 0 -49 43 c-26 23 -79
69 -116 102 -38 33 -74 65 -80 70 -6 6 -45 39 -86 75 -41 36 -91 79 -110 97
-19 18 -38 33 -42 33 -5 0 -8 9 -8 20 0 22 -27 70 -40 70 -4 0 -12 -17 -19
-37z m737 -1152 l33 -1 -3 -57 -3 -56 -83 -1 c-91 -1 -123 9 -40 13 65 3 95
16 57 26 -43 11 -63 13 -101 14 -32 1 -36 4 -34 24 4 38 12 42 78 41 34 -1 78
-3 96 -3z m-638 -113 c0 -3 -9 -6 -20 -5 -11 1 -20 5 -20 9 0 3 9 6 20 5 11
-1 20 -5 20 -9z m480 2 c0 -5 -5 -10 -11 -10 -5 0 -7 5 -4 10 3 6 8 10 11 10
2 0 4 -4 4 -10z"/>
</g>
</svg>
